<?xml version="1.0" encoding="utf-8"?>
<!-- Generator: Adobe Illustrator 23.0.2, SVG Export Plug-In . SVG Version: 6.00 Build 0)  -->
<svg version="1.1" id="图层_1" xmlns="http://www.w3.org/2000/svg" xmlns:xlink="http://www.w3.org/1999/xlink" x="0px" y="0px"
	 viewBox="0 0 86 86" style="enable-background:new 0 0 86 86;" xml:space="preserve">
<style type="text/css">
	.st0{fill:#2DB7F5;}
	.st1{fill:#FFFFFF;}
</style>
<g transform="matrix(1 0 0 1 -369 -755 )">
	<g>
		<g id="widget68">
			<path class="st0" d="M412,765c15.7,0,28,12.3,28,28s-12.3,28-28,28s-28-12.3-28-28S396.3,765,412,765z"/>
		</g>
	</g>
	<g>
		<g>
			<path class="st0" d="M412,765c15.7,0,28,12.3,28,28s-12.3,28-28,28s-28-12.3-28-28S396.3,765,412,765z"/>
		</g>
	</g>
</g>
<g transform="matrix(1 0 0 1 -385 -768 )">
	<g>
		<g id="widget70">
			<path class="st1" d="M420.8,803.3c2.2,0.4,4.6,0.7,7.2,0.7s5-0.2,7.2-0.7c2.2-0.4,4-1.1,5.3-2v2.7c0,0.7-0.6,1.4-1.7,2
				c-1.1,0.6-2.6,1.1-4.6,1.5c-1.9,0.4-4,0.5-6.3,0.5s-4.3-0.2-6.3-0.5c-1.9-0.4-3.4-0.8-4.6-1.5c-1.1-0.6-1.7-1.3-1.7-2v-2.7
				C416.8,802.2,418.6,802.9,420.8,803.3z M420.8,815.3c2.2,0.4,4.6,0.7,7.2,0.7s5-0.2,7.2-0.7c2.2-0.4,4-1.1,5.3-2v2.7
				c0,0.7-0.6,1.4-1.7,2c-1.1,0.6-2.6,1.1-4.6,1.5c-1.9,0.4-4,0.5-6.3,0.5s-4.3-0.2-6.3-0.5c-1.9-0.4-3.4-0.8-4.6-1.5
				c-1.1-0.6-1.7-1.3-1.7-2v-2.7C416.8,814.2,418.6,814.9,420.8,815.3z M420.8,809.3c2.2,0.4,4.6,0.7,7.2,0.7s5-0.2,7.2-0.7
				c2.2-0.4,4-1.1,5.3-2v2.7c0,0.7-0.6,1.4-1.7,2c-1.1,0.6-2.6,1.1-4.6,1.5c-1.9,0.4-4,0.5-6.3,0.5s-4.3-0.2-6.3-0.5
				c-1.9-0.4-3.4-0.8-4.6-1.5c-1.1-0.6-1.7-1.3-1.7-2v-2.7C416.8,808.2,418.6,808.9,420.8,809.3z M421.7,792.5
				c1.9-0.4,4-0.5,6.3-0.5s4.3,0.2,6.3,0.5c1.9,0.4,3.4,0.8,4.6,1.5c1.1,0.6,1.7,1.3,1.7,2v2c0,0.7-0.6,1.4-1.7,2
				c-1.1,0.6-2.6,1.1-4.6,1.5c-1.9,0.4-4,0.5-6.3,0.5s-4.3-0.2-6.3-0.5c-1.9-0.4-3.4-0.8-4.6-1.5c-1.1-0.6-1.7-1.3-1.7-2v-2
				c0-0.7,0.6-1.4,1.7-2C418.3,793.4,419.8,792.9,421.7,792.5z"/>
		</g>
	</g>
	<g>
		<g>
			<path class="st1" d="M420.8,803.3c2.2,0.4,4.6,0.7,7.2,0.7s5-0.2,7.2-0.7c2.2-0.4,4-1.1,5.3-2v2.7c0,0.7-0.6,1.4-1.7,2
				c-1.1,0.6-2.6,1.1-4.6,1.5c-1.9,0.4-4,0.5-6.3,0.5s-4.3-0.2-6.3-0.5c-1.9-0.4-3.4-0.8-4.6-1.5c-1.1-0.6-1.7-1.3-1.7-2v-2.7
				C416.8,802.2,418.6,802.9,420.8,803.3z M420.8,815.3c2.2,0.4,4.6,0.7,7.2,0.7s5-0.2,7.2-0.7c2.2-0.4,4-1.1,5.3-2v2.7
				c0,0.7-0.6,1.4-1.7,2c-1.1,0.6-2.6,1.1-4.6,1.5c-1.9,0.4-4,0.5-6.3,0.5s-4.3-0.2-6.3-0.5c-1.9-0.4-3.4-0.8-4.6-1.5
				c-1.1-0.6-1.7-1.3-1.7-2v-2.7C416.8,814.2,418.6,814.9,420.8,815.3z M420.8,809.3c2.2,0.4,4.6,0.7,7.2,0.7s5-0.2,7.2-0.7
				c2.2-0.4,4-1.1,5.3-2v2.7c0,0.7-0.6,1.4-1.7,2c-1.1,0.6-2.6,1.1-4.6,1.5c-1.9,0.4-4,0.5-6.3,0.5s-4.3-0.2-6.3-0.5
				c-1.9-0.4-3.4-0.8-4.6-1.5c-1.1-0.6-1.7-1.3-1.7-2v-2.7C416.8,808.2,418.6,808.9,420.8,809.3z M421.7,792.5
				c1.9-0.4,4-0.5,6.3-0.5s4.3,0.2,6.3,0.5c1.9,0.4,3.4,0.8,4.6,1.5c1.1,0.6,1.7,1.3,1.7,2v2c0,0.7-0.6,1.4-1.7,2
				c-1.1,0.6-2.6,1.1-4.6,1.5c-1.9,0.4-4,0.5-6.3,0.5s-4.3-0.2-6.3-0.5c-1.9-0.4-3.4-0.8-4.6-1.5c-1.1-0.6-1.7-1.3-1.7-2v-2
				c0-0.7,0.6-1.4,1.7-2C418.3,793.4,419.8,792.9,421.7,792.5z"/>
		</g>
	</g>
</g>
</svg>
