<?xml version="1.0" encoding="utf-8"?>
<!-- Generator: Adobe Illustrator 23.0.2, SVG Export Plug-In . SVG Version: 6.00 Build 0)  -->
<svg version="1.1" id="图层_1" xmlns="http://www.w3.org/2000/svg" xmlns:xlink="http://www.w3.org/1999/xlink" x="0px" y="0px"
	 viewBox="0 0 86 86" style="enable-background:new 0 0 86 86;" xml:space="preserve">
<style type="text/css">
	.st0{fill:#F9BF00;}
	.st1{fill:#FFFFFF;}
</style>
<g transform="matrix(1 0 0 1 -1284 -754 )">
	<g>
		<g id="widget80">
			<path class="st0" d="M1327,764c15.7,0,28,12.3,28,28s-12.3,28-28,28s-28-12.3-28-28S1311.3,764,1327,764z"/>
		</g>
	</g>
	<g>
		<g>
			<path class="st0" d="M1327,764c15.7,0,28,12.3,28,28s-12.3,28-28,28s-28-12.3-28-28S1311.3,764,1327,764z"/>
		</g>
	</g>
</g>
<g transform="matrix(1 0 0 1 -1298 -769 )">
	<g>
		<g id="widget82">
			<path class="st1" d="M1343.9,811.8l1.7-3.6h5.8c0,0,0-0.1,0-0.2s0-0.1,0-0.2l-3.9-8.9h-12.9l-3.9,8.9c0,0,0,0.1,0,0.2
				s0,0.1,0,0.2h5.8l1.7,3.6H1343.9z M1354.5,806.5c0.3,0.8,0.5,1.5,0.5,2.3v9c0,0.3-0.1,0.6-0.3,0.8c-0.2,0.2-0.5,0.4-0.8,0.4
				h-25.7c-0.3,0-0.6-0.1-0.8-0.4c-0.2-0.2-0.3-0.5-0.3-0.8v-9c0-0.8,0.2-1.5,0.5-2.3l4.3-10.3c0.1-0.3,0.3-0.6,0.7-0.8
				c0.3-0.2,0.6-0.3,1-0.3h15.2c0.3,0,0.6,0.1,1,0.3c0.3,0.2,0.5,0.5,0.7,0.8L1354.5,806.5z"/>
		</g>
	</g>
	<g>
		<g>
			<path class="st1" d="M1343.9,811.8l1.7-3.6h5.8c0,0,0-0.1,0-0.2s0-0.1,0-0.2l-3.9-8.9h-12.9l-3.9,8.9c0,0,0,0.1,0,0.2
				s0,0.1,0,0.2h5.8l1.7,3.6H1343.9z M1354.5,806.5c0.3,0.8,0.5,1.5,0.5,2.3v9c0,0.3-0.1,0.6-0.3,0.8c-0.2,0.2-0.5,0.4-0.8,0.4
				h-25.7c-0.3,0-0.6-0.1-0.8-0.4c-0.2-0.2-0.3-0.5-0.3-0.8v-9c0-0.8,0.2-1.5,0.5-2.3l4.3-10.3c0.1-0.3,0.3-0.6,0.7-0.8
				c0.3-0.2,0.6-0.3,1-0.3h15.2c0.3,0,0.6,0.1,1,0.3c0.3,0.2,0.5,0.5,0.7,0.8L1354.5,806.5z"/>
		</g>
	</g>
</g>
</svg>
