<?xml version="1.0" encoding="utf-8"?>
<!-- Generator: Adobe Illustrator 23.0.2, SVG Export Plug-In . SVG Version: 6.00 Build 0)  -->
<svg version="1.1" id="图层_1" xmlns="http://www.w3.org/2000/svg" xmlns:xlink="http://www.w3.org/1999/xlink" x="0px" y="0px"
	 viewBox="0 0 86 86" style="enable-background:new 0 0 86 86;" xml:space="preserve">
<style type="text/css">
	.st0{fill:#7DC856;}
	.st1{fill:#FFFFFF;}
</style>
<g transform="matrix(1 0 0 1 -978 -754 )">
	<g>
		<g id="widget76">
			<path class="st0" d="M1021,764c15.7,0,28,12.3,28,28s-12.3,28-28,28c-15.7,0-28-12.3-28-28S1005.3,764,1021,764z"/>
		</g>
	</g>
	<g>
		<g>
			<path class="st0" d="M1021,764c15.7,0,28,12.3,28,28s-12.3,28-28,28c-15.7,0-28-12.3-28-28S1005.3,764,1021,764z"/>
		</g>
	</g>
</g>
<g transform="matrix(1 0 0 1 -994 -767 )">
	<g>
		<g id="widget78">
			<path class="st1" d="M1048.5,793h-1.5c0,2.7-0.6,5.1-1.7,7.2c-1.1,2.1-2.5,3.7-4.2,4.8c1.7,1.1,3.1,2.7,4.2,4.8
				c1.1,2.1,1.7,4.5,1.7,7.2h1.5c0.1,0,0.3,0,0.4,0.1s0.1,0.2,0.1,0.4v1c0,0.1,0,0.3-0.1,0.4s-0.2,0.1-0.4,0.1h-23
				c-0.1,0-0.3,0-0.4-0.1s-0.1-0.2-0.1-0.4v-1c0-0.1,0-0.3,0.1-0.4s0.2-0.1,0.4-0.1h1.5c0-2.7,0.6-5.1,1.7-7.2
				c1.1-2.1,2.5-3.7,4.2-4.8c-1.7-1.1-3.1-2.7-4.2-4.8c-1.1-2.1-1.7-4.5-1.7-7.2h-1.5c-0.1,0-0.3,0-0.4-0.1s-0.1-0.2-0.1-0.4v-1
				c0-0.1,0-0.3,0.1-0.4s0.2-0.1,0.4-0.1h23c0.1,0,0.3,0,0.4,0.1s0.1,0.2,0.1,0.4v1c0,0.1,0,0.3-0.1,0.4S1048.6,793,1048.5,793z
				 M1038.2,804.4c0.1-0.2,0.3-0.3,0.5-0.4c0.8-0.3,1.6-0.8,2.3-1.4c0.8-0.7,1.4-1.5,2-2.4c0.6-0.9,1.1-2,1.4-3.3
				c0.4-1.3,0.5-2.6,0.5-4h-16c0,1.4,0.2,2.7,0.5,4c0.4,1.3,0.8,2.4,1.4,3.3c0.6,0.9,1.3,1.7,2,2.4c0.8,0.7,1.5,1.1,2.3,1.4
				c0.2,0.1,0.4,0.2,0.5,0.4s0.2,0.4,0.2,0.6c0,0.2-0.1,0.4-0.2,0.6s-0.3,0.3-0.5,0.4c-1.4,0.5-2.7,1.6-3.8,3.1h10.9
				c-1.1-1.5-2.4-2.5-3.8-3.1c-0.2-0.1-0.4-0.2-0.5-0.4s-0.2-0.4-0.2-0.6C1038,804.8,1038.1,804.6,1038.2,804.4z"/>
		</g>
	</g>
	<g>
		<g>
			<path class="st1" d="M1048.5,793h-1.5c0,2.7-0.6,5.1-1.7,7.2c-1.1,2.1-2.5,3.7-4.2,4.8c1.7,1.1,3.1,2.7,4.2,4.8
				c1.1,2.1,1.7,4.5,1.7,7.2h1.5c0.1,0,0.3,0,0.4,0.1s0.1,0.2,0.1,0.4v1c0,0.1,0,0.3-0.1,0.4s-0.2,0.1-0.4,0.1h-23
				c-0.1,0-0.3,0-0.4-0.1s-0.1-0.2-0.1-0.4v-1c0-0.1,0-0.3,0.1-0.4s0.2-0.1,0.4-0.1h1.5c0-2.7,0.6-5.1,1.7-7.2
				c1.1-2.1,2.5-3.7,4.2-4.8c-1.7-1.1-3.1-2.7-4.2-4.8c-1.1-2.1-1.7-4.5-1.7-7.2h-1.5c-0.1,0-0.3,0-0.4-0.1s-0.1-0.2-0.1-0.4v-1
				c0-0.1,0-0.3,0.1-0.4s0.2-0.1,0.4-0.1h23c0.1,0,0.3,0,0.4,0.1s0.1,0.2,0.1,0.4v1c0,0.1,0,0.3-0.1,0.4S1048.6,793,1048.5,793z
				 M1038.2,804.4c0.1-0.2,0.3-0.3,0.5-0.4c0.8-0.3,1.6-0.8,2.3-1.4c0.8-0.7,1.4-1.5,2-2.4c0.6-0.9,1.1-2,1.4-3.3
				c0.4-1.3,0.5-2.6,0.5-4h-16c0,1.4,0.2,2.7,0.5,4c0.4,1.3,0.8,2.4,1.4,3.3c0.6,0.9,1.3,1.7,2,2.4c0.8,0.7,1.5,1.1,2.3,1.4
				c0.2,0.1,0.4,0.2,0.5,0.4s0.2,0.4,0.2,0.6c0,0.2-0.1,0.4-0.2,0.6s-0.3,0.3-0.5,0.4c-1.4,0.5-2.7,1.6-3.8,3.1h10.9
				c-1.1-1.5-2.4-2.5-3.8-3.1c-0.2-0.1-0.4-0.2-0.5-0.4s-0.2-0.4-0.2-0.6C1038,804.8,1038.1,804.6,1038.2,804.4z"/>
		</g>
	</g>
</g>
</svg>
