<?xml version="1.0" encoding="utf-8"?>
<!-- Generator: Adobe Illustrator 23.0.2, SVG Export Plug-In . SVG Version: 6.00 Build 0)  -->
<svg version="1.1" id="图层_1" xmlns="http://www.w3.org/2000/svg" xmlns:xlink="http://www.w3.org/1999/xlink" x="0px" y="0px"
	 viewBox="0 0 86 86" style="enable-background:new 0 0 86 86;" xml:space="preserve">
<style type="text/css">
	.st0{fill:#808BC6;}
	.st1{fill:#FBFBFB;}
</style>
<g transform="matrix(1 0 0 1 -671 -755 )">
	<g>
		<g id="widget72">
			<path class="st0" d="M714,765c15.7,0,28,12.3,28,28s-12.3,28-28,28s-28-12.3-28-28S698.3,765,714,765z"/>
		</g>
	</g>
	<g>
		<g>
			<path class="st0" d="M714,765c15.7,0,28,12.3,28,28s-12.3,28-28,28s-28-12.3-28-28S698.3,765,714,765z"/>
		</g>
	</g>
</g>
<g transform="matrix(1 0 0 1 -686 -768 )">
	<g>
		<g id="widget74">
			<path class="st1" d="M720,814.1c0.2-0.2,0.3-0.5,0.3-0.8c0-0.3-0.1-0.5-0.3-0.8s-0.5-0.3-0.8-0.3s-0.5,0.1-0.8,0.3
				s-0.3,0.5-0.3,0.8c0,0.3,0.1,0.5,0.3,0.8s0.5,0.3,0.8,0.3S719.8,814.3,720,814.1z M739.5,805c0.2-0.5,0.4-1,0.4-1.4
				c0-0.6-0.2-1.1-0.7-1.5c-0.4-0.4-0.9-0.6-1.5-0.6h-6c0-0.7,0.3-1.5,0.8-2.7c0.5-1.1,0.8-2,0.8-2.7c0-1.1-0.2-1.9-0.5-2.4
				c-0.4-0.5-1.1-0.8-2.2-0.8c-0.3,0.3-0.5,0.8-0.6,1.4c-0.1,0.7-0.3,1.4-0.5,2.1c-0.2,0.7-0.5,1.4-1,1.8c-0.2,0.3-0.7,0.8-1.3,1.5
				c0,0.1-0.2,0.2-0.4,0.5s-0.4,0.5-0.5,0.7c-0.1,0.2-0.3,0.4-0.6,0.7c-0.2,0.3-0.5,0.5-0.7,0.7s-0.4,0.4-0.7,0.6
				c-0.2,0.2-0.5,0.4-0.7,0.5s-0.4,0.2-0.6,0.2h0v10.8h0c0.1,0,0.3,0,0.5,0.1c0.2,0,0.4,0.1,0.6,0.1s0.4,0.1,0.6,0.2
				c0.3,0.1,0.5,0.1,0.6,0.2s0.3,0.1,0.6,0.2c0.3,0.1,0.4,0.2,0.5,0.2c2.4,0.8,4.3,1.2,5.8,1.2h2c2.2,0,3.3-0.9,3.3-2.8
				c0-0.3,0-0.6-0.1-0.9c0.3-0.2,0.6-0.5,0.8-0.9c0.2-0.4,0.3-0.8,0.3-1.2c0-0.4-0.1-0.8-0.3-1.2c0.6-0.6,0.9-1.2,0.9-2
				c0-0.3-0.1-0.6-0.2-0.9s-0.3-0.6-0.4-0.8C738.9,805.8,739.2,805.5,739.5,805z M740.7,800.6c0.9,0.9,1.3,1.9,1.3,3
				c0,1-0.3,1.9-0.8,2.7c0.1,0.4,0.2,0.8,0.2,1.2c0,0.9-0.2,1.7-0.6,2.4c0,0.2,0.1,0.5,0.1,0.7c0,1.1-0.3,2.1-1,3
				c0,1.6-0.5,2.8-1.4,3.7c-1,0.9-2.3,1.4-3.8,1.4h-0.6h-1.6c-1.1,0-2.2-0.1-3.2-0.4c-1.1-0.3-2.3-0.6-3.7-1.1
				c-1.3-0.4-2.1-0.7-2.3-0.7h-4.9c-0.6,0-1.1-0.2-1.5-0.6c-0.4-0.4-0.6-0.9-0.6-1.5v-10.8c0-0.6,0.2-1.1,0.6-1.5s0.9-0.6,1.5-0.6
				h4.6c0.4-0.3,1.2-1.1,2.3-2.6c0.7-0.8,1.3-1.6,1.8-2.2c0.3-0.3,0.5-0.8,0.6-1.4c0.1-0.7,0.3-1.4,0.5-2.1c0.2-0.7,0.6-1.3,1-1.8
				c0.4-0.4,0.9-0.6,1.5-0.6c0.9,0,1.8,0.2,2.6,0.5c0.8,0.4,1.3,0.9,1.7,1.7s0.6,1.8,0.6,3.1c0,1-0.3,2.1-0.8,3.2h3
				C738.8,799.3,739.9,799.8,740.7,800.6z"/>
		</g>
	</g>
	<g>
		<g>
			<path class="st1" d="M720,814.1c0.2-0.2,0.3-0.5,0.3-0.8c0-0.3-0.1-0.5-0.3-0.8s-0.5-0.3-0.8-0.3s-0.5,0.1-0.8,0.3
				s-0.3,0.5-0.3,0.8c0,0.3,0.1,0.5,0.3,0.8s0.5,0.3,0.8,0.3S719.8,814.3,720,814.1z M739.5,805c0.2-0.5,0.4-1,0.4-1.4
				c0-0.6-0.2-1.1-0.7-1.5c-0.4-0.4-0.9-0.6-1.5-0.6h-6c0-0.7,0.3-1.5,0.8-2.7c0.5-1.1,0.8-2,0.8-2.7c0-1.1-0.2-1.9-0.5-2.4
				c-0.4-0.5-1.1-0.8-2.2-0.8c-0.3,0.3-0.5,0.8-0.6,1.4c-0.1,0.7-0.3,1.4-0.5,2.1c-0.2,0.7-0.5,1.4-1,1.8c-0.2,0.3-0.7,0.8-1.3,1.5
				c0,0.1-0.2,0.2-0.4,0.5s-0.4,0.5-0.5,0.7c-0.1,0.2-0.3,0.4-0.6,0.7c-0.2,0.3-0.5,0.5-0.7,0.7s-0.4,0.4-0.7,0.6
				c-0.2,0.2-0.5,0.4-0.7,0.5s-0.4,0.2-0.6,0.2h0v10.8h0c0.1,0,0.3,0,0.5,0.1c0.2,0,0.4,0.1,0.6,0.1s0.4,0.1,0.6,0.2
				c0.3,0.1,0.5,0.1,0.6,0.2s0.3,0.1,0.6,0.2c0.3,0.1,0.4,0.2,0.5,0.2c2.4,0.8,4.3,1.2,5.8,1.2h2c2.2,0,3.3-0.9,3.3-2.8
				c0-0.3,0-0.6-0.1-0.9c0.3-0.2,0.6-0.5,0.8-0.9c0.2-0.4,0.3-0.8,0.3-1.2c0-0.4-0.1-0.8-0.3-1.2c0.6-0.6,0.9-1.2,0.9-2
				c0-0.3-0.1-0.6-0.2-0.9s-0.3-0.6-0.4-0.8C738.9,805.8,739.2,805.5,739.5,805z M740.7,800.6c0.9,0.9,1.3,1.9,1.3,3
				c0,1-0.3,1.9-0.8,2.7c0.1,0.4,0.2,0.8,0.2,1.2c0,0.9-0.2,1.7-0.6,2.4c0,0.2,0.1,0.5,0.1,0.7c0,1.1-0.3,2.1-1,3
				c0,1.6-0.5,2.8-1.4,3.7c-1,0.9-2.3,1.4-3.8,1.4h-0.6h-1.6c-1.1,0-2.2-0.1-3.2-0.4c-1.1-0.3-2.3-0.6-3.7-1.1
				c-1.3-0.4-2.1-0.7-2.3-0.7h-4.9c-0.6,0-1.1-0.2-1.5-0.6c-0.4-0.4-0.6-0.9-0.6-1.5v-10.8c0-0.6,0.2-1.1,0.6-1.5s0.9-0.6,1.5-0.6
				h4.6c0.4-0.3,1.2-1.1,2.3-2.6c0.7-0.8,1.3-1.6,1.8-2.2c0.3-0.3,0.5-0.8,0.6-1.4c0.1-0.7,0.3-1.4,0.5-2.1c0.2-0.7,0.6-1.3,1-1.8
				c0.4-0.4,0.9-0.6,1.5-0.6c0.9,0,1.8,0.2,2.6,0.5c0.8,0.4,1.3,0.9,1.7,1.7s0.6,1.8,0.6,3.1c0,1-0.3,2.1-0.8,3.2h3
				C738.8,799.3,739.9,799.8,740.7,800.6z"/>
		</g>
	</g>
</g>
</svg>
