<?xml version="1.0" encoding="utf-8"?>
<svg version="1.1" xmlns:xlink="http://www.w3.org/1999/xlink" width="73px" height="17px" xmlns="http://www.w3.org/2000/svg">
  <defs>
    <mask fill="white" id="clip122">
      <path d="M 0 12  L 0 5  C 0 2.20000000000005  0.858823529411782 0  1.95187165775401 0  L 38.9398395721925 0  L 71.048128342246 0  C 72.1411764705882 0  73 2.20000000000005  73 5  L 73 12  C 73 14.8  72.1411764705882 17  71.048128342246 17  L 1.95187165775401 17  C 0.858823529411782 17  0 14.8  0 12  Z " fill-rule="evenodd" />
    </mask>
  </defs>
  <g transform="matrix(1 0 0 1 -694 -948 )">
    <path d="M 0 12  L 0 5  C 0 2.20000000000005  0.858823529411782 0  1.95187165775401 0  L 38.9398395721925 0  L 71.048128342246 0  C 72.1411764705882 0  73 2.20000000000005  73 5  L 73 12  C 73 14.8  72.1411764705882 17  71.048128342246 17  L 1.95187165775401 17  C 0.858823529411782 17  0 14.8  0 12  Z " fill-rule="nonzero" fill="#ffffff" stroke="none" transform="matrix(1 0 0 1 694 948 )" />
    <path d="M 0 12  L 0 5  C 0 2.20000000000005  0.858823529411782 0  1.95187165775401 0  L 38.9398395721925 0  L 71.048128342246 0  C 72.1411764705882 0  73 2.20000000000005  73 5  L 73 12  C 73 14.8  72.1411764705882 17  71.048128342246 17  L 1.95187165775401 17  C 0.858823529411782 17  0 14.8  0 12  Z " stroke-width="2" stroke="#797979" fill="none" transform="matrix(1 0 0 1 694 948 )" mask="url(#clip122)" />
  </g>
</svg>