<?xml version="1.0" encoding="utf-8"?>
<svg version="1.1" xmlns:xlink="http://www.w3.org/1999/xlink" width="61px" height="58px" xmlns="http://www.w3.org/2000/svg">
  <g transform="matrix(1 0 0 1 -492 -749 )">
    <path d="M 34.8551136474609 33.4825174547133  L 34.8565341186523 33  L 16.8181818237305 33  C 15.6676136474609 33.4825174547133  14.7372159423828 34.437737234933  14.7372158813477 35.6178820956387  C 14.7372158203125 36.7980269563444  15.6690340576172 37.7532467365642  16.8181818237305 37  L 34.8551136474609 37  C 36.0042613525391 37.7532467365642  36.9360795288086 36.7980269563444  36.9360795288086 35.6178820956387  C 36.9360795288086 34.437737234933  36.0042613525391 33.4825174547133  34.8551136474609 33.4825174547133  Z M 48.4985795288086 22.5679570151528  L 48.4971591186523 22.5679570151528  C 45.1661932373047 22.5679570151528  42.3579545898437 20.2247502275069  41.5582386474609 17.0601398823832  C 41.2840909423828 15.9753746587397  40.3394886474609 15.2137612776872  39.2485795288086 15.2137612165179  C 38.1548295288086 15.2137612165179  37.2130681762695 15.9753745975704  36.9389204711914 17.0587162892771  C 36.1377841186523 20.2247502275069  33.3295454711914 22.5679570763221  29.9985795288086 22.5679570151528  C 26.6676135864258 22.5679569539835  23.859375 20.2247502275069  23.0582386474609 17.0587162892771  C 22.7840909423828 15.9753746587397  21.8409091186523 15.2137612165179  20.7485795288086 15.2137612165179  C 19.6576704101562 15.2137612165179  18.7130681762695 15.9753745975704  18.4389204711914 17.0601398823832  C 17.6392045898437 20.2247502886762  14.8309659423828 22.5679570763221  11.5014204711914 22.5679570151528  C 7.65909094238281 22.5679570151528  4.5170454711914 19.4560189420931  4.33948864746094 15.5611138972356  L 9.265625 5  L 50.734375 5  L 55.6605113525391 15.5611138972356  C 55.4829545288086 19.4560190032624  52.3394886474609 22.5679570763221  48.4985795288086 22.5679570151528  Z M 54.3224431762695 1.91613387169471  C 53.9412874529333 0.793266102740675  52.8922496952733 0.0356132484472581  51.7088068237305 0  L 8.29119317626953 0  C 7.12073864746094 0.028471556275755  6.07386364746094 0.782967032967033  5.67755682373047 1.91613387169471  L 0.170454528808594 14.842207820012  L 0.170454528808594 15.2137612165179  C 0.170454528808594 20.0254495170845  3.03693182373047 24.1652097624056  8 25.9290210068252  L 8 51.989010989011  C 7.10795452880859 54.7407842269059  9.28125 56.9715284437242  11.9644886474609 57  L 39.7116477050781 57  C 42.3948863525391 56.9715284437242  44.5681818237305 54.7407841657366  44 51.989010989011  L 44 37.7532467365642  C 44.5681818237305 36.5731018758585  43.6363636474609 35.6178820956387  42.4872158813477 35.6178820956387  C 41.3366477050781 35.6178820956387  40.4048295288086 36.5731018758585  40 37.7532467365642  L 40 51.989010989011  C 40.4048295288086 52.3819180986006  40.0951704101563 52.7007992230426  39.7116477050781 52  L 11.9644886474609 52  C 11.5791570863767 52.6977008396777  11.2684138468301 52.3837659928382  11.2684138468301 51.9975751199416  C 11.2684138468301 51.9947203302455  11.2684311919909 51.9918655670117  12 51.989010989011  L 12 26.8272976744935  C 11.3480113525391 26.8287212675996  11.4232954101563 26.8386862970038  11.5028408813477 26.8386862970038  C 15.3153408813477 26.8386862970038  18.6960227050781 24.8955044621394  20.75 21.9216533299708  C 22.8053977050781 24.8955044621394  26.1846591186523 26.8386862970038  30 26.8386862970038  C 33.8167613525391 26.8386862970038  37.1946022949219 24.8955044621394  39.25 21.9216533299708  C 41.3039772949219 24.8955044621394  44.6846591186524 26.8386862970038  48.4971591186523 26.8386862970038  C 48.5767045898438 26.8386862970038  48.6519886474609 26.8287212675996  48 26.8272976744935  L 48 54.8361638639681  C 48.7315341186523 56.0163087246738  49.6633522949219 56.9715285048935  50.8110795288086 56.9715284437242  C 51.9602272338867 56.9715284437242  52.8920454101563 56.0163086635045  52 54.8361638639681  L 52 25.9290210068252  C 56.9630681762695 24.1652097624056  59.8295454711914 20.0254495782538  59.8295454711914 15.2137612165179  L 59.8295454711914 14.842207820012  L 54.3224431762695 1.91613387169471  Z M 34.8551136474609 42.0239760184152  L 34.8579545288086 42  L 16.8181818237305 42  C 15.6676136474609 42.0239760184152  14.7372159423828 42.979195798635  14.7372158813477 44.1593406593407  C 14.7372158203125 45.3394855200464  15.6690340576172 46.2947053002661  16.8181818237305 46  L 34.8551136474609 46  C 36.0042613525391 46.2947053002661  36.9360795288086 45.3394855200464  36.9360795288086 44.1593406593407  C 36.9360795288086 42.979195798635  36.0042613525391 42.0239760184152  34.8551136474609 42.0239760184152  Z " fill-rule="nonzero" fill="#067bde" stroke="none" transform="matrix(1 0 0 1 492 749 )" />
  </g>
</svg>