<?xml version="1.0" encoding="utf-8"?>
<!-- Generator: Adobe Illustrator 23.0.2, SVG Export Plug-In . SVG Version: 6.00 Build 0)  -->
<svg version="1.1" id="图层_1" xmlns="http://www.w3.org/2000/svg" xmlns:xlink="http://www.w3.org/1999/xlink" x="0px" y="0px"
	 viewBox="0 0 200 200" style="enable-background:new 0 0 200 200;" xml:space="preserve">
<style type="text/css">
	.st0{fill:#036ED6;}
</style>
<path class="st0" d="M115.5,115.9H57.8c-3.7,0-6.7,3.1-6.7,6.8c0,3.8,3,6.8,6.7,6.8h57.7c3.7,0,6.7-3,6.7-6.8
	C122.2,119,119.2,115.9,115.5,115.9 M159.2,81.1c-10.7,0-19.6-7.5-22.2-17.6c-0.9-3.5-3.9-5.9-7.4-5.9c-3.5,0-6.5,2.4-7.4,5.9
	c-2.6,10.1-11.5,17.6-22.2,17.6s-19.6-7.5-22.2-17.6c-0.9-3.5-3.9-5.9-7.4-5.9c-3.5,0-6.5,2.4-7.4,5.9
	c-2.6,10.1-11.5,17.6-22.2,17.6c-12.3,0-22.4-9.9-22.9-22.4l15.8-36h132.7l15.8,36C181.5,71.1,171.5,81.1,159.2,81.1 M169.5,9.1
	H30.5c-3.7,0-7.1,2.4-8.4,6L4.5,56.4v1.2c0,15.4,9.2,28.6,22.2,34.2V175c0,8.8,7,15.9,15.5,15.9h88.8c8.6,0,15.5-7.1,15.5-15.9
	v-45.5c0-3.8-3-6.8-6.7-6.8c-3.7,0-6.7,3.1-6.7,6.8V175c0,1.3-1,2.3-2.2,2.3H42.3c-1.2,0-2.2-1-2.2-2.3c0,0,0,0,0,0V94.7
	c0.3,0,0.5,0,0.8,0c12.2,0,23-6.2,29.6-15.7C77,88.5,87.8,94.7,100,94.7c12.2,0,23-6.2,29.6-15.7c6.6,9.5,17.4,15.7,29.6,15.7
	c0.3,0,0.5,0,0.8,0v89.4c0,3.8,3,6.8,6.7,6.8c3.7,0,6.7-3.1,6.7-6.8V91.8c13-5.6,22.2-18.8,22.2-34.2v-1.2l-17.6-41.3
	C176.6,11.5,173.3,9.1,169.5,9.1 M115.5,143.2H57.8c-3.7,0-6.7,3.1-6.7,6.8s3,6.8,6.7,6.8h57.7c3.7,0,6.7-3.1,6.7-6.8
	S119.2,143.2,115.5,143.2"/>
</svg>
