<?xml version="1.0" encoding="utf-8"?>
<!-- Generator: Adobe Illustrator 23.0.2, SVG Export Plug-In . SVG Version: 6.00 Build 0)  -->
<svg version="1.1" id="图层_1" xmlns="http://www.w3.org/2000/svg" xmlns:xlink="http://www.w3.org/1999/xlink" x="0px" y="0px"
	 viewBox="0 0 200 200" style="enable-background:new 0 0 200 200;" xml:space="preserve">
<style type="text/css">
	.st0{fill:#036ED6;}
</style>
<path class="st0" d="M170.8,20.8H29.2c-4.6,0-8.3,3.8-8.3,8.3v29.2h158.3V29.2C179.2,24.6,175.4,20.8,170.8,20.8z M60.4,45.8H43.8
	c-3.3,0-6.3-2.9-6.3-6.2c0-3.3,2.9-6.3,6.3-6.3h16.7c3.3,0,6.3,2.9,6.3,6.3C66.7,42.9,63.8,45.8,60.4,45.8z M156.3,45.8H89.6
	c-3.3,0-6.3-2.9-6.3-6.3s2.9-6.2,6.3-6.2h66.7c3.3,0,6.3,2.9,6.3,6.3C162.5,42.9,159.6,45.8,156.3,45.8z M20.8,170.8
	c0,4.6,3.8,8.3,8.3,8.3h141.7c4.6,0,8.3-3.8,8.3-8.3v-100H20.8V170.8L20.8,170.8z M136.7,116.2v28.3c0,2.9-1.7,5.8-4.2,7.5l-25,14.2
	c-1.7,0.8-3.8-0.4-3.8-2.1v-28.3c0-2.9,1.7-5.8,4.2-7.5l25-14.2C134.6,112.9,136.7,114.2,136.7,116.2z M70.4,102.1l25-14.6
	c2.5-1.7,5.8-1.7,8.8,0l24.6,14.2c1.7,0.8,1.7,3.3,0,4.6l-25,14.2c-2.5,1.7-5.8,1.7-8.8,0l-25-14.2
	C68.7,105.4,68.7,102.9,70.4,102.1L70.4,102.1z M62.5,116.7c0-2.1,2.1-3.3,3.8-2.1l24.2,14.2c2.5,1.7,4.2,4.6,4.2,7.5v27.9
	c0,2.1-2.1,3.3-3.8,2.1l-24.2-14.6c-2.5-1.7-4.2-4.6-4.2-7.5V116.7z"/>
</svg>
