<?xml version="1.0" encoding="utf-8"?>
<!-- Generator: Adobe Illustrator 23.0.2, SVG Export Plug-In . SVG Version: 6.00 Build 0)  -->
<svg version="1.1" id="图层_1" xmlns="http://www.w3.org/2000/svg" xmlns:xlink="http://www.w3.org/1999/xlink" x="0px" y="0px"
	 viewBox="0 0 200 200" style="enable-background:new 0 0 200 200;" xml:space="preserve">
<style type="text/css">
	.st0{fill:#036ED6;}
</style>
<path class="st0" d="M162.5,100.1c-2.3,0-4.2-1.9-4.2-4.2V59.7c0-5.4-4.4-9.7-9.7-9.7h-15.3v12.4c0,2.3-1.9,4.2-4.2,4.2H70.7
	c-2.3,0-4.2-1.9-4.2-4.2v0V50H51.4c-5.4,0-9.7,4.4-9.7,9.7v97.2c0,5.4,4.4,9.7,9.7,9.7h97.2c5.4,0,9.7-4.4,9.7-9.7v-36
	c0-2.3,1.9-4.2,4.2-4.2c2.3,0,4.2,1.9,4.2,4.2v36c0,10-8.1,18.1-18.1,18.1H51.4c-10,0-18.1-8.1-18.1-18.1V59.7
	c0-10,8.1-18.1,18.1-18.1h97.2c10,0,18.1,8.1,18.1,18.1v36.2C166.7,98.2,164.8,100.1,162.5,100.1L162.5,100.1z M74.9,58.2h50V50h-50
	C74.9,50,74.9,58.2,74.9,58.2z"/>
<path class="st0" d="M64.2,97.6h-5.4v38.1h6v-22.7l9,22.7h5.3V97.6h-6v22.7L64.2,97.6z M101.6,103.1v-5.4h-16v38.1h16v-5.4h-10
	v-11.1h8.6v-5.4h-8.6v-10.8H101.6z M126,97.6h-6.6l-5.3,28.9l-3.7-28.9h-6.6l7.2,38.1h6.3l5.4-29l5.5,29h6.3l7.2-38.1H135l-3.7,28.9
	L126,97.6z"/>
</svg>
