<?xml version="1.0" encoding="utf-8"?>
<!-- Generator: Adobe Illustrator 23.0.2, SVG Export Plug-In . SVG Version: 6.00 Build 0)  -->
<svg version="1.1" id="图层_1" xmlns="http://www.w3.org/2000/svg" xmlns:xlink="http://www.w3.org/1999/xlink" x="0px" y="0px"
	 viewBox="0 0 200 200" style="enable-background:new 0 0 200 200;" xml:space="preserve">
<style type="text/css">
	.st0{fill:#036ED6;}
</style>
<path class="st0" d="M38.7,96.2c0,4.5,3.7,8.2,8.2,8.2s8.2-3.7,8.2-8.2c0-4.5-3.7-8.2-8.2-8.2S38.7,91.7,38.7,96.2z"/>
<path class="st0" d="M161.3,100.3H73.9c-2.3,0-4.1-1.8-4.1-4.1s1.8-4.1,4.1-4.1h87.4c2.3,0,4.1,1.8,4.1,4.1S163.6,100.3,161.3,100.3
	z"/>
<path class="st0" d="M38.7,123.5c0,4.5,3.7,8.2,8.2,8.2s8.2-3.7,8.2-8.2l0,0c0-4.5-3.7-8.2-8.2-8.2S38.7,119,38.7,123.5L38.7,123.5z
	"/>
<path class="st0" d="M161.3,127.6H73.9c-2.3,0-4.1-1.8-4.1-4.1c0-2.3,1.8-4.1,4.1-4.1h87.4c2.3,0,4.1,1.8,4.1,4.1
	C165.4,125.8,163.6,127.6,161.3,127.6z"/>
<path class="st0" d="M172.4,45.9h-68.6l-5.7-9c-1.3-2.3-6.8-10.7-15.2-10.7H23.5c-6,0-10.9,4.9-10.9,10.9v121.7c0,8.3,6.7,15,15,15
	h144.8c8.3,0,15-6.7,15-15V60.9C187.4,52.6,180.7,45.9,172.4,45.9L172.4,45.9z M179.2,158.8c0,3.8-3.1,6.8-6.8,6.8H27.6
	c-3.8,0-6.8-3.1-6.8-6.8V60.9c0-3.8,3.1-6.8,6.8-6.8h144.8c3.8,0,6.8,3.1,6.8,6.8L179.2,158.8L179.2,158.8z"/>
</svg>
